<?xml version="1.0" encoding="UTF-8" standalone="no"?>
<!DOCTYPE svg PUBLIC "-//W3C//DTD SVG 1.1//EN"
 "http://www.w3.org/Graphics/SVG/1.1/DTD/svg11.dtd">
<!-- Generated by graphviz version 5.0.0 (20220707.1540)
 -->
<!-- Title: G Pages: 1 -->
<svg width="303pt" height="255pt"
 viewBox="0.00 0.00 302.92 255.13" xmlns="http://www.w3.org/2000/svg" xmlns:xlink="http://www.w3.org/1999/xlink">
<g id="graph0" class="graph" transform="scale(1 1) rotate(0) translate(4 251.13)">
<title>G</title>
<polygon fill="white" stroke="transparent" points="-4,4 -4,-251.13 298.92,-251.13 298.92,4 -4,4"/>
<!-- jqt -->
<g id="node1" class="node">
<title>jqt</title>
<ellipse fill="none" stroke="black" cx="59.84" cy="-128.27" rx="27" ry="18"/>
<text text-anchor="middle" x="59.84" y="-124.57" font-family="Times New Roman,serif" font-size="14.00">jqt</text>
</g>
<!-- rhn -->
<g id="node2" class="node">
<title>rhn</title>
<ellipse fill="none" stroke="black" cx="27" cy="-166.93" rx="27" ry="18"/>
<text text-anchor="middle" x="27" y="-163.23" font-family="Times New Roman,serif" font-size="14.00">rhn</text>
</g>
<!-- jqt&#45;&#45;rhn -->
<g id="edge1" class="edge">
<title>jqt&#45;&#45;rhn</title>
<path fill="none" stroke="black" d="M46.48,-144C44.49,-146.34 42.44,-148.75 40.45,-151.09"/>
</g>
<!-- xhk -->
<g id="node3" class="node">
<title>xhk</title>
<ellipse fill="none" stroke="black" cx="50.71" cy="-205.61" rx="27" ry="18"/>
<text text-anchor="middle" x="50.71" y="-201.91" font-family="Times New Roman,serif" font-size="14.00">xhk</text>
</g>
<!-- jqt&#45;&#45;xhk -->
<g id="edge2" class="edge">
<title>jqt&#45;&#45;xhk</title>
<path fill="none" stroke="black" d="M57.68,-146.6C56.22,-158.93 54.31,-175.11 52.86,-187.41"/>
</g>
<!-- nvd -->
<g id="node4" class="node">
<title>nvd</title>
<ellipse fill="none" stroke="black" cx="145.59" cy="-101.7" rx="27" ry="18"/>
<text text-anchor="middle" x="145.59" y="-98" font-family="Times New Roman,serif" font-size="14.00">nvd</text>
</g>
<!-- jqt&#45;&#45;nvd -->
<g id="edge3" class="edge">
<title>jqt&#45;&#45;nvd</title>
<path fill="none" stroke="black" d="M84.64,-120.59C96.02,-117.06 109.47,-112.89 120.84,-109.37"/>
</g>
<!-- rhn&#45;&#45;xhk -->
<g id="edge12" class="edge">
<title>rhn&#45;&#45;xhk</title>
<path fill="none" stroke="black" d="M37.47,-184.01C38.46,-185.63 39.46,-187.27 40.45,-188.88"/>
</g>
<!-- hfx -->
<g id="node9" class="node">
<title>hfx</title>
<ellipse fill="none" stroke="black" cx="128.97" cy="-206.14" rx="27" ry="18"/>
<text text-anchor="middle" x="128.97" y="-202.44" font-family="Times New Roman,serif" font-size="14.00">hfx</text>
</g>
<!-- rhn&#45;&#45;hfx -->
<g id="edge13" class="edge">
<title>rhn&#45;&#45;hfx</title>
<path fill="none" stroke="black" d="M50.39,-175.92C66.86,-182.25 88.82,-190.7 105.34,-197.05"/>
</g>
<!-- bvb -->
<g id="node13" class="node">
<title>bvb</title>
<ellipse fill="none" stroke="black" cx="93.05" cy="-152.45" rx="27" ry="18"/>
<text text-anchor="middle" x="93.05" y="-148.75" font-family="Times New Roman,serif" font-size="14.00">bvb</text>
</g>
<!-- rhn&#45;&#45;bvb -->
<g id="edge14" class="edge">
<title>rhn&#45;&#45;bvb</title>
<path fill="none" stroke="black" d="M52.73,-161.29C57.51,-160.24 62.5,-159.15 67.29,-158.1"/>
</g>
<!-- xhk&#45;&#45;hfx -->
<g id="edge7" class="edge">
<title>xhk&#45;&#45;hfx</title>
<path fill="none" stroke="black" d="M78.08,-205.8C85.75,-205.85 94.09,-205.9 101.75,-205.96"/>
</g>
<!-- lhk -->
<g id="node12" class="node">
<title>lhk</title>
<ellipse fill="none" stroke="black" cx="196.62" cy="-39.03" rx="27" ry="18"/>
<text text-anchor="middle" x="196.62" y="-35.33" font-family="Times New Roman,serif" font-size="14.00">lhk</text>
</g>
<!-- nvd&#45;&#45;lhk -->
<g id="edge25" class="edge">
<title>nvd&#45;&#45;lhk</title>
<path fill="none" stroke="black" d="M158.73,-85.56C166.41,-76.13 176.06,-64.28 183.7,-54.9"/>
</g>
<!-- rsh -->
<g id="node5" class="node">
<title>rsh</title>
<ellipse fill="none" stroke="black" cx="267.92" cy="-134.76" rx="27" ry="18"/>
<text text-anchor="middle" x="267.92" y="-131.06" font-family="Times New Roman,serif" font-size="14.00">rsh</text>
</g>
<!-- frs -->
<g id="node6" class="node">
<title>frs</title>
<ellipse fill="none" stroke="black" cx="263.81" cy="-34.03" rx="27" ry="18"/>
<text text-anchor="middle" x="263.81" y="-30.33" font-family="Times New Roman,serif" font-size="14.00">frs</text>
</g>
<!-- rsh&#45;&#45;frs -->
<g id="edge4" class="edge">
<title>rsh&#45;&#45;frs</title>
<path fill="none" stroke="black" d="M267.19,-116.76C266.44,-98.53 265.3,-70.51 264.55,-52.22"/>
</g>
<!-- pzl -->
<g id="node7" class="node">
<title>pzl</title>
<ellipse fill="none" stroke="black" cx="200.44" cy="-165.66" rx="27" ry="18"/>
<text text-anchor="middle" x="200.44" y="-161.96" font-family="Times New Roman,serif" font-size="14.00">pzl</text>
</g>
<!-- rsh&#45;&#45;pzl -->
<g id="edge5" class="edge">
<title>rsh&#45;&#45;pzl</title>
<path fill="none" stroke="black" d="M245.45,-145.05C238.24,-148.35 230.26,-152.01 223.04,-155.31"/>
</g>
<!-- lsr -->
<g id="node8" class="node">
<title>lsr</title>
<ellipse fill="none" stroke="black" cx="258.28" cy="-95.57" rx="27" ry="18"/>
<text text-anchor="middle" x="258.28" y="-91.87" font-family="Times New Roman,serif" font-size="14.00">lsr</text>
</g>
<!-- rsh&#45;&#45;lsr -->
<g id="edge6" class="edge">
<title>rsh&#45;&#45;lsr</title>
<path fill="none" stroke="black" d="M263.44,-116.54C263.21,-115.58 262.97,-114.62 262.73,-113.66"/>
</g>
<!-- frs&#45;&#45;lsr -->
<g id="edge31" class="edge">
<title>frs&#45;&#45;lsr</title>
<path fill="none" stroke="black" d="M262.18,-52.16C261.47,-60.1 260.63,-69.4 259.92,-77.36"/>
</g>
<!-- qnr -->
<g id="node11" class="node">
<title>qnr</title>
<ellipse fill="none" stroke="black" cx="168.22" cy="-18" rx="27" ry="18"/>
<text text-anchor="middle" x="168.22" y="-14.3" font-family="Times New Roman,serif" font-size="14.00">qnr</text>
</g>
<!-- frs&#45;&#45;qnr -->
<g id="edge32" class="edge">
<title>frs&#45;&#45;qnr</title>
<path fill="none" stroke="black" d="M237.43,-29.61C224.06,-27.37 207.87,-24.65 194.51,-22.41"/>
</g>
<!-- frs&#45;&#45;lhk -->
<g id="edge33" class="edge">
<title>frs&#45;&#45;lhk</title>
<path fill="none" stroke="black" d="M236.86,-36.04C232.48,-36.36 227.95,-36.7 223.56,-37.02"/>
</g>
<!-- pzl&#45;&#45;nvd -->
<g id="edge17" class="edge">
<title>pzl&#45;&#45;nvd</title>
<path fill="none" stroke="black" d="M186.88,-149.85C178.38,-139.94 167.46,-127.21 158.99,-117.33"/>
</g>
<!-- pzl&#45;&#45;lsr -->
<g id="edge18" class="edge">
<title>pzl&#45;&#45;lsr</title>
<path fill="none" stroke="black" d="M213.56,-149.76C223.03,-138.28 235.75,-122.87 245.21,-111.41"/>
</g>
<!-- pzl&#45;&#45;hfx -->
<g id="edge19" class="edge">
<title>pzl&#45;&#45;hfx</title>
<path fill="none" stroke="black" d="M179.77,-177.37C170.37,-182.69 159.27,-188.98 149.85,-194.32"/>
</g>
<!-- lsr&#45;&#45;lhk -->
<g id="edge26" class="edge">
<title>lsr&#45;&#45;lhk</title>
<path fill="none" stroke="black" d="M242.4,-81.01C233.27,-72.63 221.82,-62.14 212.66,-53.74"/>
</g>
<!-- cmg -->
<g id="node10" class="node">
<title>cmg</title>
<ellipse fill="none" stroke="black" cx="123.24" cy="-63.87" rx="27" ry="18"/>
<text text-anchor="middle" x="123.24" y="-60.17" font-family="Times New Roman,serif" font-size="14.00">cmg</text>
</g>
<!-- cmg&#45;&#45;nvd -->
<g id="edge8" class="edge">
<title>cmg&#45;&#45;nvd</title>
<path fill="none" stroke="black" d="M133.37,-81.01C134.11,-82.26 134.85,-83.52 135.59,-84.77"/>
</g>
<!-- cmg&#45;&#45;qnr -->
<g id="edge9" class="edge">
<title>cmg&#45;&#45;qnr</title>
<path fill="none" stroke="black" d="M138.22,-48.59C143.03,-43.69 148.35,-38.27 153.16,-33.36"/>
</g>
<!-- cmg&#45;&#45;lhk -->
<g id="edge10" class="edge">
<title>cmg&#45;&#45;lhk</title>
<path fill="none" stroke="black" d="M147.68,-55.6C155.68,-52.89 164.56,-49.88 172.54,-47.18"/>
</g>
<!-- cmg&#45;&#45;bvb -->
<g id="edge11" class="edge">
<title>cmg&#45;&#45;bvb</title>
<path fill="none" stroke="black" d="M117.13,-81.79C111.86,-97.26 104.29,-119.48 99.05,-134.85"/>
</g>
<!-- qnr&#45;&#45;nvd -->
<g id="edge20" class="edge">
<title>qnr&#45;&#45;nvd</title>
<path fill="none" stroke="black" d="M163.42,-35.75C159.58,-49.95 154.22,-69.78 150.38,-83.97"/>
</g>
<!-- bvb&#45;&#45;xhk -->
<g id="edge15" class="edge">
<title>bvb&#45;&#45;xhk</title>
<path fill="none" stroke="black" d="M80.35,-168.4C74.99,-175.13 68.76,-182.95 63.4,-189.67"/>
</g>
<!-- bvb&#45;&#45;hfx -->
<g id="edge16" class="edge">
<title>bvb&#45;&#45;hfx</title>
<path fill="none" stroke="black" d="M104.22,-169.14C108.59,-175.67 113.58,-183.13 117.94,-189.64"/>
</g>
<!-- ntq -->
<g id="node14" class="node">
<title>ntq</title>
<ellipse fill="none" stroke="black" cx="86.87" cy="-229.13" rx="27" ry="18"/>
<text text-anchor="middle" x="86.87" y="-225.43" font-family="Times New Roman,serif" font-size="14.00">ntq</text>
</g>
<!-- ntq&#45;&#45;jqt -->
<g id="edge21" class="edge">
<title>ntq&#45;&#45;jqt</title>
<path fill="none" stroke="black" d="M82.04,-211.1C77.12,-192.74 69.54,-164.45 64.63,-146.15"/>
</g>
<!-- ntq&#45;&#45;xhk -->
<g id="edge22" class="edge">
<title>ntq&#45;&#45;xhk</title>
<path fill="none" stroke="black" d="M67.52,-216.55C67.38,-216.46 67.25,-216.37 67.12,-216.28"/>
</g>
<!-- ntq&#45;&#45;hfx -->
<g id="edge23" class="edge">
<title>ntq&#45;&#45;hfx</title>
<path fill="none" stroke="black" d="M107.92,-217.64C108.09,-217.55 108.25,-217.46 108.42,-217.37"/>
</g>
<!-- ntq&#45;&#45;bvb -->
<g id="edge24" class="edge">
<title>ntq&#45;&#45;bvb</title>
<path fill="none" stroke="black" d="M88.34,-210.96C89.32,-198.74 90.61,-182.69 91.6,-170.49"/>
</g>
<!-- rzs -->
<g id="node15" class="node">
<title>rzs</title>
<ellipse fill="none" stroke="black" cx="208.77" cy="-79.44" rx="27" ry="18"/>
<text text-anchor="middle" x="208.77" y="-75.74" font-family="Times New Roman,serif" font-size="14.00">rzs</text>
</g>
<!-- rzs&#45;&#45;rsh -->
<g id="edge27" class="edge">
<title>rzs&#45;&#45;rsh</title>
<path fill="none" stroke="black" d="M224.62,-94.26C233.11,-102.2 243.53,-111.95 252.03,-119.9"/>
</g>
<!-- rzs&#45;&#45;lsr -->
<g id="edge28" class="edge">
<title>rzs&#45;&#45;lsr</title>
<path fill="none" stroke="black" d="M233.24,-87.41C233.43,-87.47 233.63,-87.54 233.82,-87.6"/>
</g>
<!-- rzs&#45;&#45;cmg -->
<g id="edge29" class="edge">
<title>rzs&#45;&#45;cmg</title>
<path fill="none" stroke="black" d="M182.64,-74.68C172.13,-72.77 160.03,-70.56 149.5,-68.65"/>
</g>
<!-- rzs&#45;&#45;qnr -->
<g id="edge30" class="edge">
<title>rzs&#45;&#45;qnr</title>
<path fill="none" stroke="black" d="M197.69,-62.65C191.97,-53.98 185.01,-43.43 179.29,-34.77"/>
</g>
</g>
</svg>
